<svg width="20" height="20" viewBox="0 0 20 20" fill="none" xmlns="http://www.w3.org/2000/svg">
<path fill-rule="evenodd" clip-rule="evenodd" d="M11.414 10L15.707 5.70701C16.098 5.31601 16.098 4.68401 15.707 4.29301C15.316 3.90201 14.684 3.90201 14.293 4.29301L10 8.58601L5.70701 4.29301C5.31601 3.90201 4.68401 3.90201 4.29301 4.29301C3.90201 4.68401 3.90201 5.31601 4.29301 5.70701L8.58601 10L4.29301 14.293C3.90201 14.684 3.90201 15.316 4.29301 15.707C4.48801 15.902 4.74401 16 5.00001 16C5.25601 16 5.51201 15.902 5.70701 15.707L10 11.414L14.293 15.707C14.488 15.902 14.744 16 15 16C15.256 16 15.512 15.902 15.707 15.707C16.098 15.316 16.098 14.684 15.707 14.293L11.414 10Z" fill="#2C5DE5"/>
</svg>
