<svg width="20" height="20" viewBox="0 0 20 20" fill="none" xmlns="http://www.w3.org/2000/svg">
<path fill-rule="evenodd" clip-rule="evenodd" d="M9.70742 5.29272L9.79061 5.38693C10.0702 5.74653 10.0702 6.25312 9.79061 6.61271L9.70742 6.70692L9.61321 6.79011C9.25358 7.06971 8.74694 7.06971 8.38732 6.79011L8.2931 6.70692L6.99976 5.41469L7.00012 14.9997C7.00012 15.5125 6.61408 15.9352 6.11674 15.993L6.00012 15.9997L5.88335 15.993C5.42427 15.9396 5.06002 15.5754 5.0067 15.1163L4.99997 14.9997L4.99976 5.41469L3.70699 6.70692L3.61277 6.79011C3.22045 7.09513 2.65318 7.0674 2.29267 6.70692C1.93216 6.34644 1.90443 5.77922 2.20948 5.38693L2.29267 5.29272L5.29287 2.29277L5.41333 2.18994L5.49588 2.13596L5.61375 2.07719L5.71243 2.04191L5.85101 2.01089L5.94623 2.00105L6.05421 2.00133L6.14852 2.01089L6.28793 2.04199L6.41457 2.08953L6.51964 2.14524L6.60178 2.20099L6.66557 2.25342L6.70722 2.29277L9.70742 5.29272L9.79061 5.38693L9.70742 5.29272ZM17.7905 14.6131L17.7073 14.7073L14.7071 17.7072L14.6216 17.7835L14.5512 17.8346L14.4541 17.8913L14.3812 17.9249L14.3137 17.9499L14.2622 17.9653L14.1484 17.9891L14.0541 17.9987L13.9252 17.9971L13.8509 17.9891L13.7123 17.9581L13.5868 17.9111L13.4958 17.864L13.4132 17.8101L13.3702 17.7761L13.2928 17.7072L10.2926 14.7073C9.90201 14.3168 9.90201 13.6836 10.2926 13.2931C10.6531 12.9326 11.2203 12.9049 11.6127 13.2099L11.7069 13.2931L12.9997 14.5853L12.9999 5.00031C12.9999 4.48747 13.3859 4.0648 13.8832 4.00703L14 4.00031C14.5523 4.00031 15 4.44802 15 5.00031L14.9997 14.5853L16.293 13.2931C16.6535 12.9326 17.2208 12.9049 17.6131 13.2099L17.7073 13.2931C18.0678 13.6536 18.0956 14.2208 17.7905 14.6131Z" fill="#008556"/>
</svg>
