<svg width="24" height="24" viewBox="0 0 24 24" fill="none" xmlns="http://www.w3.org/2000/svg">
<path fill-rule="evenodd" clip-rule="evenodd" d="M20 15C20 15.551 19.551 16 19 16H15C14.685 16 14.389 16.148 14.2 16.4L12 19.333L9.8 16.4C9.611 16.148 9.315 16 9 16L5 16C4.449 16 4 15.551 4 15L4 5C4 4.449 4.449 4 5 4L19 4C19.551 4 20 4.449 20 5L20 15ZM19 2L5 2C3.346 2 2 3.346 2 5L2 15C2 16.654 3.346 18 5 18H8.5L11.2 21.6C11.389 21.852 11.685 22 12 22C12.315 22 12.611 21.852 12.8 21.6L15.5 18H19C20.654 18 22 16.654 22 15L22 5C22 3.346 20.654 2 19 2ZM17 7L7 7C6.448 7 6 7.448 6 8C6 8.552 6.448 9 7 9L17 9C17.552 9 18 8.552 18 8C18 7.448 17.552 7 17 7ZM7 11L17 11C17.552 11 18 11.448 18 12C18 12.552 17.552 13 17 13L7 13C6.448 13 6 12.552 6 12C6 11.448 6.448 11 7 11Z" fill="#1A1A1A"/>
</svg>
