<svg width="20" height="20" viewBox="0 0 20 20" fill="none" xmlns="http://www.w3.org/2000/svg">
<path fill-rule="evenodd" clip-rule="evenodd" d="M9.75 2.5C9.19772 2.5 8.75 2.94772 8.75 3.5L8.75 8.75L3.5 8.75C2.94772 8.75 2.5 9.19772 2.5 9.75V10.25C2.5 10.8023 2.94772 11.25 3.5 11.25L8.75 11.25L8.75 16.5C8.75 17.0523 9.19772 17.5 9.75 17.5H10.25C10.8023 17.5 11.25 17.0523 11.25 16.5L11.25 11.25L16.5 11.25C17.0523 11.25 17.5 10.8023 17.5 10.25V9.75C17.5 9.19772 17.0523 8.75 16.5 8.75L11.25 8.75L11.25 3.5C11.25 2.94772 10.8023 2.5 10.25 2.5H9.75Z" fill="white"/>
</svg>
